<?xml version="1.0" encoding="iso-8859-1"?>
<!-- Generator: Adobe Illustrator 19.0.0, SVG Export Plug-In . SVG Version: 6.00 Build 0)  -->
<svg version="1.1" id="Capa_1" xmlns="http://www.w3.org/2000/svg" xmlns:xlink="http://www.w3.org/1999/xlink" x="0px" y="0px"
	 viewBox="0 0 512.001 512.001" style="enable-background:new 0 0 512.001 512.001;" xml:space="preserve">
<g style="enable-background:new    ;">
	<g>
		<polygon style="fill:#378B4F;" points="215.362,110.162 0,235.317 0,341.768 266.713,496.156 482.075,371 482.377,264.549 		"/>
		<polygon style="fill:#378B4F;" points="482.377,264.549 482.075,371 266.713,496.156 267.014,389.704 		"/>
	</g>
	<g>
		<polygon style="fill:#40A559;" points="267.014,389.704 266.713,496.156 0,341.768 0,235.317 		"/>
		<polygon style="fill:#4DBA69;" points="12.182,334.743 12.182,256.43 254.813,396.72 254.591,475.064 		"/>
	</g>
	<polygon style="fill:#4DBA69;" points="482.377,264.549 267.014,389.704 0,235.317 215.362,110.162 	"/>
</g>
<path style="fill:#ACABB1;" d="M453.266,85.982c0.144-1.559-0.802-3.147-2.861-4.336c-3.83-2.211-10.042-2.211-13.847,0
	c-1.944,1.13-2.883,2.621-2.833,4.104l-0.01,179.262c-0.004,1.46,0.959,2.922,2.888,4.034c3.833,2.213,10.027,2.213,13.835,0
	c1.892-1.099,2.839-2.538,2.843-3.979l0.011-179.381C453.291,85.786,453.275,85.884,453.266,85.982z"/>
<path style="fill:#898890;" d="M453.291,85.688l-0.011,179.381c-0.004,1.441-0.951,2.88-2.843,3.979
	c-3.808,2.213-10.002,2.213-13.835,0c-1.929-1.114-2.892-2.576-2.888-4.034l0.01-179.381c-0.004,1.46,0.959,2.922,2.888,4.034
	c3.833,2.213,10.027,2.213,13.835,0C452.34,88.567,453.286,87.129,453.291,85.688z"/>
<path style="fill:#ACABB1;" d="M450.405,81.647c3.831,2.212,3.85,5.81,0.045,8.021c-3.806,2.211-10.017,2.211-13.847,0
	c-3.83-2.211-3.85-5.81-0.045-8.021C440.363,79.435,446.574,79.435,450.405,81.647z"/>
<path style="fill:#C6C5CB;" d="M136.486,352.437c-3.798-2.193-7.239-2.396-9.724-0.952l-5.645,3.283
	c-2.579,1.375-4.197,4.445-4.21,8.871c-0.025,8.668,6.092,19.261,13.634,23.615c4.049,2.337,7.687,2.392,10.204,0.615
	c-0.156,0.11-0.305,0.232-0.47,0.327l5.846-3.401c2.453-1.425,3.974-4.457,3.986-8.766
	C150.132,367.358,144.034,356.795,136.486,352.437z"/>
<path style="fill:#D8D8DA;" d="M140.274,388.197l5.847-3.401c2.453-1.425,3.974-4.457,3.986-8.766
	c0.024-8.673-6.074-19.236-13.621-23.593c-3.798-2.193-7.239-2.396-9.724-0.952l-5.846,3.4c2.485-1.444,5.926-1.24,9.724,0.952
	c7.547,4.357,13.647,14.921,13.621,23.593C144.249,383.74,142.728,386.771,140.274,388.197z"/>
<path style="fill:#C6C5CB;" d="M116.908,363.639c0.024-8.667,6.181-12.174,13.723-7.82c7.543,4.355,13.659,14.948,13.634,23.615
	c-0.024,8.668-6.181,12.175-13.724,7.82C123,382.9,116.883,372.306,116.908,363.639z"/>
<g style="enable-background:new    ;">
	<polygon style="fill:#C6C5CB;" points="362.098,288.543 121.708,148.844 154.275,92.437 394.665,232.136 	"/>
	<polyline style="fill:#BDFDFF;" points="375.753,232.809 283.743,179.687 260.741,219.528 352.751,272.649 375.753,232.809 	"/>
	<g>
		<polygon style="fill:#E0E0E2;" points="394.665,232.136 154.275,92.437 200.503,65.747 440.893,205.446 		"/>
		<polygon style="fill:#E0E0E2;" points="271.772,340.693 31.382,200.994 121.708,148.844 362.098,288.543 		"/>
	</g>
	<polygon style="fill:#C6C5CB;" points="271.855,370.068 31.465,230.369 31.382,200.994 271.772,340.693 	"/>
	<polygon style="fill:#ACABB1;" points="440.893,205.446 440.999,242.99 441.083,272.365 271.855,370.068 271.772,340.693 
		362.098,288.543 394.665,232.136 	"/>
</g>
<g>
	<polygon style="fill:#FEDA44;" points="294.938,259.563 294.954,253.392 277.363,243.235 263.223,251.452 263.206,257.624 
		280.798,267.779 	"/>
	<polygon style="fill:#FEDA44;" points="286.501,271.073 304.09,281.227 318.23,273.01 318.247,266.84 300.658,256.684 
		286.519,264.901 	"/>
	<polygon style="fill:#FEDA44;" points="323.953,270.133 309.813,278.35 309.796,284.522 327.385,294.677 341.524,286.46 
		341.542,280.289 	"/>
	<polygon style="fill:#FEDA44;" points="275.196,271.035 275.214,264.864 257.622,254.707 243.483,262.924 243.465,269.096 
		261.056,279.252 	"/>
	<polygon style="fill:#FEDA44;" points="298.488,284.483 298.506,278.312 280.917,268.156 266.777,276.373 266.759,282.545 
		284.348,292.7 	"/>
	<polygon style="fill:#FEDA44;" points="290.072,289.822 290.055,295.994 307.644,306.149 321.783,297.932 321.801,291.761 
		304.212,281.606 	"/>
	<polygon style="fill:#FEDA44;" points="255.452,282.508 255.47,276.338 237.878,266.181 223.742,274.396 223.724,280.568 
		241.315,290.724 	"/>
	<polygon style="fill:#FEDA44;" points="247.036,287.845 247.019,294.017 264.608,304.172 278.745,295.956 278.762,289.785 
		261.173,279.63 	"/>
	<polygon style="fill:#FEDA44;" points="235.729,287.81 218.138,277.653 204,285.868 203.982,292.04 221.574,302.196 
		235.711,293.981 	"/>
	<polygon style="fill:#FEDA44;" points="259.021,301.258 241.432,291.102 227.295,299.319 227.277,305.49 244.866,315.644 
		259.004,307.429 	"/>
</g>
<polygon style="fill:#FF3E61;" points="250.589,312.768 250.573,318.939 268.162,329.093 302.04,309.405 302.057,303.235 
	284.469,293.079 "/>
<polygon style="fill:#FEDA44;" points="294.954,253.392 294.938,259.563 280.798,267.779 280.816,261.609 "/>
<polygon style="fill:#FFDE56;" points="280.816,261.609 280.798,267.779 263.206,257.624 263.223,251.452 "/>
<polygon style="fill:#FFEB9A;" points="294.954,253.392 280.816,261.609 263.223,251.452 277.363,243.235 "/>
<polygon style="fill:#FEDA44;" points="318.247,266.84 318.23,273.01 304.09,281.227 304.108,275.056 "/>
<polygon style="fill:#FFDE56;" points="304.108,275.056 304.09,281.227 286.501,271.073 286.519,264.901 "/>
<polygon style="fill:#FFEB9A;" points="318.247,266.84 304.108,275.056 286.519,264.901 300.658,256.684 "/>
<polygon style="fill:#FEDA44;" points="341.542,280.289 341.524,286.46 327.385,294.677 327.402,288.506 "/>
<polygon style="fill:#FFDE56;" points="327.402,288.506 327.385,294.677 309.796,284.522 309.813,278.35 "/>
<polygon style="fill:#FFEB9A;" points="341.542,280.289 327.402,288.506 309.813,278.35 323.953,270.133 "/>
<polygon style="fill:#FEDA44;" points="275.214,264.864 275.196,271.035 261.056,279.252 261.074,273.081 "/>
<polygon style="fill:#FFDE56;" points="261.074,273.081 261.056,279.252 243.465,269.096 243.483,262.924 "/>
<polygon style="fill:#FFEB9A;" points="275.214,264.864 261.074,273.081 243.483,262.924 257.622,254.707 "/>
<polygon style="fill:#FEDA44;" points="298.506,278.312 298.488,284.483 284.348,292.7 284.366,286.529 "/>
<polygon style="fill:#FFDE56;" points="284.366,286.529 284.348,292.7 266.759,282.545 266.777,276.373 "/>
<polygon style="fill:#FFEB9A;" points="298.506,278.312 284.366,286.529 266.777,276.373 280.917,268.156 "/>
<polygon style="fill:#FEDA44;" points="321.801,291.761 321.783,297.932 307.644,306.149 307.661,299.978 "/>
<polygon style="fill:#FFDE56;" points="307.661,299.978 307.644,306.149 290.055,295.994 290.072,289.822 "/>
<polygon style="fill:#FFEB9A;" points="321.801,291.761 307.661,299.978 290.072,289.822 304.212,281.606 "/>
<polygon style="fill:#FEDA44;" points="255.47,276.338 255.452,282.508 241.315,290.724 241.333,284.553 "/>
<polygon style="fill:#FFDE56;" points="241.333,284.553 241.315,290.724 223.724,280.568 223.742,274.396 "/>
<polygon style="fill:#FFEB9A;" points="255.47,276.338 241.333,284.553 223.742,274.396 237.878,266.181 "/>
<polygon style="fill:#FEDA44;" points="278.762,289.785 278.745,295.956 264.608,304.172 264.625,298.001 "/>
<polygon style="fill:#FFDE56;" points="264.625,298.001 264.608,304.172 247.019,294.017 247.036,287.845 "/>
<polygon style="fill:#FFEB9A;" points="278.762,289.785 264.625,298.001 247.036,287.845 261.173,279.63 "/>
<polygon style="fill:#FEDA44;" points="235.729,287.81 235.711,293.981 221.574,302.196 221.591,296.025 "/>
<polygon style="fill:#FFDE56;" points="221.591,296.025 221.574,302.196 203.982,292.04 204,285.868 "/>
<polygon style="fill:#FFEB9A;" points="235.729,287.81 221.591,296.025 204,285.868 218.138,277.653 "/>
<polygon style="fill:#FEDA44;" points="259.021,301.258 259.004,307.429 244.866,315.644 244.884,309.473 "/>
<polygon style="fill:#FFDE56;" points="244.884,309.473 244.866,315.644 227.277,305.49 227.295,299.319 "/>
<polygon style="fill:#FFEB9A;" points="259.021,301.258 244.884,309.473 227.295,299.319 241.432,291.102 "/>
<g>
	<polygon style="fill:#FEDA44;" points="271.644,246.304 271.662,240.133 254.071,229.976 239.931,238.193 239.914,244.365 
		257.505,254.521 	"/>
	<polygon style="fill:#FEDA44;" points="251.904,257.776 251.921,251.605 234.33,241.448 220.19,249.665 220.173,255.837 
		237.764,265.993 	"/>
	<polygon style="fill:#FEDA44;" points="232.16,269.25 232.177,263.079 214.586,252.922 200.449,261.138 200.432,267.309 
		218.023,277.465 	"/>
	<polygon style="fill:#FEDA44;" points="212.437,274.551 194.845,264.395 180.708,272.611 180.69,278.782 198.281,288.937 
		212.419,280.722 	"/>
	<polygon style="fill:#FEDA44;" points="271.662,240.133 271.644,246.304 257.505,254.521 257.522,248.35 	"/>
</g>
<polygon style="fill:#FFEB9A;" points="271.662,240.133 257.522,248.35 239.931,238.193 254.071,229.976 "/>
<g>
	<polygon style="fill:#FFDE56;" points="237.781,259.822 237.764,265.993 220.173,255.837 220.19,249.665 	"/>
	<polygon style="fill:#FFDE56;" points="257.522,248.35 257.505,254.521 239.914,244.365 239.931,238.193 	"/>
</g>
<polygon style="fill:#FFEB9A;" points="251.921,251.605 237.781,259.822 220.19,249.665 234.33,241.448 "/>
<polygon style="fill:#FEDA44;" points="232.177,263.079 232.16,269.25 218.023,277.465 218.04,271.294 "/>
<polygon style="fill:#FFDE56;" points="218.04,271.294 218.023,277.465 200.432,267.309 200.449,261.138 "/>
<polygon style="fill:#FFEB9A;" points="232.177,263.079 218.04,271.294 200.449,261.138 214.586,252.922 "/>
<polygon style="fill:#FEDA44;" points="212.437,274.551 212.419,280.722 198.281,288.937 198.299,282.767 "/>
<polygon style="fill:#FFDE56;" points="198.299,282.767 198.281,288.937 180.69,278.782 180.708,272.611 "/>
<polygon style="fill:#FFEB9A;" points="212.437,274.551 198.299,282.767 180.708,272.611 194.845,264.395 "/>
<g>
	<polygon style="fill:#FEDA44;" points="212.771,211.698 212.789,205.526 195.197,195.37 181.057,203.587 181.04,209.758 
		198.631,219.915 	"/>
	<polygon style="fill:#FEDA44;" points="204.334,223.207 221.923,233.363 236.063,225.146 236.081,218.974 218.492,208.82 
		204.352,217.036 	"/>
	<polygon style="fill:#FEDA44;" points="193.03,223.17 193.047,216.998 175.456,206.843 161.316,215.059 161.299,221.23 
		178.89,231.387 	"/>
	<polygon style="fill:#FEDA44;" points="216.322,236.618 216.339,230.446 198.75,220.292 184.611,228.509 184.594,234.679 
		202.182,244.835 	"/>
	<polygon style="fill:#FEDA44;" points="173.286,234.644 173.304,228.473 155.713,218.316 141.575,226.532 141.557,232.703 
		159.149,242.859 	"/>
	<polygon style="fill:#FEDA44;" points="164.87,239.981 164.852,246.152 182.441,256.307 196.578,248.092 196.596,241.921 
		179.007,231.765 	"/>
	<polygon style="fill:#FEDA44;" points="153.562,239.945 135.971,229.788 121.833,238.004 121.817,244.176 139.408,254.332 
		153.544,246.116 	"/>
	<polygon style="fill:#FEDA44;" points="176.854,253.393 159.266,243.238 145.129,251.453 145.111,257.625 162.7,267.779 
		176.838,259.564 	"/>
</g>
<polygon style="fill:#FFDE56;" points="198.649,213.744 198.631,219.915 181.04,209.758 181.057,203.587 "/>
<polygon style="fill:#FFEB9A;" points="212.789,205.526 198.649,213.744 181.057,203.587 195.197,195.37 "/>
<polygon style="fill:#FEDA44;" points="236.081,218.974 236.063,225.146 221.923,233.363 221.941,227.192 "/>
<polygon style="fill:#FFDE56;" points="221.941,227.192 221.923,233.363 204.334,223.207 204.352,217.036 "/>
<polygon style="fill:#FFEB9A;" points="236.081,218.974 221.941,227.192 204.352,217.036 218.492,208.82 "/>
<polygon style="fill:#FEDA44;" points="193.047,216.998 193.03,223.17 178.89,231.387 178.908,225.216 "/>
<polygon style="fill:#FFDE56;" points="178.908,225.216 178.89,231.387 161.299,221.23 161.316,215.059 "/>
<polygon style="fill:#FFEB9A;" points="193.047,216.998 178.908,225.216 161.316,215.059 175.456,206.843 "/>
<polygon style="fill:#FFDE56;" points="202.2,238.664 202.182,244.835 184.594,234.68 184.611,228.509 "/>
<polygon style="fill:#FFEB9A;" points="216.339,230.446 202.2,238.664 184.611,228.509 198.75,220.292 "/>
<polygon style="fill:#FEDA44;" points="173.304,228.473 173.286,234.644 159.149,242.859 159.166,236.688 "/>
<polygon style="fill:#FFDE56;" points="159.166,236.688 159.149,242.859 141.557,232.703 141.575,226.532 "/>
<polygon style="fill:#FFEB9A;" points="173.304,228.473 159.166,236.688 141.575,226.532 155.713,218.316 "/>
<polygon style="fill:#FEDA44;" points="196.596,241.921 196.578,248.092 182.441,256.307 182.459,250.136 "/>
<polygon style="fill:#FFDE56;" points="182.459,250.136 182.441,256.307 164.852,246.152 164.87,239.981 "/>
<polygon style="fill:#FFEB9A;" points="196.596,241.921 182.459,250.136 164.87,239.981 179.007,231.765 "/>
<polygon style="fill:#FEDA44;" points="153.562,239.945 153.544,246.116 139.408,254.332 139.426,248.161 "/>
<polygon style="fill:#FFDE56;" points="139.426,248.161 139.408,254.332 121.817,244.176 121.833,238.004 "/>
<polygon style="fill:#FFEB9A;" points="153.562,239.945 139.426,248.161 121.833,238.004 135.971,229.788 "/>
<polygon style="fill:#FEDA44;" points="176.854,253.393 176.838,259.564 162.7,267.779 162.718,261.609 "/>
<polygon style="fill:#FFDE56;" points="162.718,261.609 162.7,267.779 145.111,257.625 145.129,251.453 "/>
<polygon style="fill:#FFEB9A;" points="176.854,253.393 162.718,261.609 145.129,251.453 159.266,243.238 "/>
<g>
	<polygon style="fill:#FEDA44;" points="189.479,198.439 189.496,192.267 171.905,182.112 157.765,190.328 157.747,196.499 
		175.339,206.656 	"/>
	<polygon style="fill:#FEDA44;" points="169.737,209.911 169.755,203.741 152.163,193.584 138.024,201.801 138.007,207.972 
		155.598,218.128 	"/>
	<polygon style="fill:#FEDA44;" points="149.994,221.385 150.012,215.214 132.419,205.057 118.283,213.273 118.265,219.445 
		135.856,229.601 	"/>
	<polygon style="fill:#FEDA44;" points="130.27,226.686 112.679,216.53 98.541,224.745 98.524,230.917 116.116,241.073 
		130.252,232.857 	"/>
	<polygon style="fill:#FEDA44;" points="189.496,192.267 189.479,198.439 175.339,206.656 175.356,200.485 	"/>
</g>
<polygon style="fill:#FFEB9A;" points="189.496,192.267 175.356,200.485 157.765,190.328 171.905,182.112 "/>
<g>
	<polygon style="fill:#FFDE56;" points="155.615,211.957 155.598,218.128 138.007,207.972 138.024,201.801 	"/>
	<polygon style="fill:#FFDE56;" points="175.356,200.485 175.339,206.656 157.747,196.499 157.765,190.328 	"/>
</g>
<polygon style="fill:#FFEB9A;" points="169.755,203.741 155.615,211.957 138.024,201.801 152.163,193.584 "/>
<polygon style="fill:#FEDA44;" points="150.012,215.214 149.994,221.385 135.856,229.601 135.874,223.43 "/>
<polygon style="fill:#FFDE56;" points="135.874,223.43 135.856,229.601 118.265,219.445 118.283,213.273 "/>
<polygon style="fill:#FFEB9A;" points="150.012,215.214 135.874,223.43 118.283,213.273 132.419,205.057 "/>
<polygon style="fill:#FEDA44;" points="130.27,226.686 130.252,232.857 116.116,241.073 116.132,234.902 "/>
<polygon style="fill:#FFDE56;" points="116.132,234.902 116.116,241.073 98.524,230.917 98.541,224.745 "/>
<polygon style="fill:#FFEB9A;" points="130.27,226.686 116.132,234.902 98.541,224.745 112.679,216.53 "/>
<g>
	<polygon style="fill:#FEDA44;" points="166.185,185.245 166.202,179.073 148.611,168.917 134.472,177.134 134.454,183.305 
		152.045,193.462 	"/>
	<polygon style="fill:#FEDA44;" points="146.443,196.717 146.461,190.545 128.87,180.389 114.73,188.606 114.712,194.777 
		132.305,204.934 	"/>
	<polygon style="fill:#FEDA44;" points="126.7,208.191 126.717,202.02 109.126,191.863 94.989,200.078 94.972,206.249 
		112.563,216.406 	"/>
	<polygon style="fill:#FEDA44;" points="106.977,213.492 89.385,203.335 75.248,211.551 75.23,217.723 92.822,227.878 
		106.959,219.663 	"/>
</g>
<polygon style="fill:#FFDE56;" points="152.063,187.291 152.045,193.462 134.454,183.305 134.472,177.134 "/>
<polygon style="fill:#FFEB9A;" points="166.202,179.073 152.063,187.291 134.472,177.134 148.611,168.917 "/>
<polygon style="fill:#FEDA44;" points="146.461,190.545 146.443,196.717 132.305,204.934 132.321,198.763 "/>
<polygon style="fill:#FFDE56;" points="132.321,198.763 132.305,204.934 114.712,194.777 114.73,188.606 "/>
<polygon style="fill:#FFEB9A;" points="146.461,190.545 132.321,198.763 114.73,188.606 128.87,180.389 "/>
<polygon style="fill:#FEDA44;" points="126.717,202.02 126.7,208.191 112.563,216.406 112.581,210.235 "/>
<polygon style="fill:#FFDE56;" points="112.581,210.235 112.563,216.406 94.972,206.249 94.989,200.078 "/>
<polygon style="fill:#FFEB9A;" points="126.717,202.02 112.581,210.235 94.989,200.078 109.126,191.863 "/>
<polygon style="fill:#FEDA44;" points="106.977,213.492 106.959,219.663 92.822,227.878 92.839,221.707 "/>
<polygon style="fill:#FFDE56;" points="92.839,221.707 92.822,227.878 75.23,217.723 75.248,211.551 "/>
<polygon style="fill:#FFEB9A;" points="106.977,213.492 92.839,221.707 75.248,211.551 89.385,203.335 "/>
<g>
	<polygon style="fill:#FEDA44;" points="142.893,171.986 142.91,165.815 125.318,155.658 111.179,163.875 111.162,170.046 
		128.753,180.203 	"/>
	<polygon style="fill:#FEDA44;" points="123.151,183.458 123.169,177.287 105.578,167.131 91.438,175.347 91.42,181.518 
		109.011,191.675 	"/>
	<polygon style="fill:#FEDA44;" points="103.408,194.932 103.425,188.761 85.834,178.604 71.697,186.82 71.679,192.992 
		89.271,203.147 	"/>
	<polygon style="fill:#FEDA44;" points="83.684,200.233 66.093,190.076 51.955,198.292 51.938,204.464 69.529,214.62 
		83.667,206.404 	"/>
	<polygon style="fill:#FEDA44;" points="142.91,165.815 142.893,171.986 128.753,180.203 128.771,174.032 	"/>
</g>
<polygon style="fill:#FFEB9A;" points="142.91,165.815 128.771,174.032 111.179,163.875 125.318,155.658 "/>
<g>
	<polygon style="fill:#FFDE56;" points="109.029,185.504 109.011,191.675 91.42,181.518 91.438,175.347 	"/>
	<polygon style="fill:#FFDE56;" points="128.771,174.032 128.753,180.203 111.162,170.046 111.179,163.875 	"/>
</g>
<polygon style="fill:#FFEB9A;" points="123.169,177.287 109.029,185.504 91.438,175.347 105.578,167.131 "/>
<polygon style="fill:#FEDA44;" points="103.425,188.761 103.408,194.932 89.271,203.147 89.288,196.976 "/>
<polygon style="fill:#FFDE56;" points="89.288,196.976 89.271,203.147 71.679,192.992 71.697,186.82 "/>
<polygon style="fill:#FFEB9A;" points="103.425,188.761 89.288,196.976 71.697,186.82 85.834,178.604 "/>
<polygon style="fill:#FEDA44;" points="83.684,200.233 83.667,206.404 69.529,214.62 69.547,208.449 "/>
<polygon style="fill:#FFDE56;" points="69.547,208.449 69.529,214.62 51.938,204.464 51.955,198.292 "/>
<polygon style="fill:#FFEB9A;" points="83.684,200.233 69.547,208.449 51.955,198.292 66.093,190.076 "/>
<polygon style="fill:#C60024;" points="302.058,303.235 302.04,309.406 268.162,329.093 268.178,322.922 "/>
<polygon style="fill:#FE0B37;" points="268.178,322.922 268.162,329.093 250.573,318.939 250.589,312.768 "/>
<polygon style="fill:#FF3E61;" points="302.058,303.235 268.178,322.922 250.589,312.768 284.469,293.079 "/>
<polygon style="fill:#898890;" points="252.805,114.495 237.655,123.269 184.96,92.801 200.11,84.027 "/>
<path style="fill:#C6C5CB;" d="M273.045,56.22l-0.011-3.923c-0.016-5.59-2.004-9.521-5.202-11.361
	c0.01,0.006,0.022,0.01,0.031,0.017l-41.142-23.91c-3.221-1.871-7.679-1.613-12.591,1.223c-9.762,5.635-17.678,19.348-17.645,30.564
	l0.125,44.167l41.142,23.91l0.414-0.239L238.04,72.5c-0.028-9.796,6.153-21.536,14.278-27.846l20.313,11.804L273.045,56.22z"/>
<g style="enable-background:new    ;">
	<path style="fill:#C6C5CB;" d="M272.619,52.537c-0.016-5.442-1.944-9.276-5.049-11.08l-41.142-23.91
		c3.105,1.805,5.033,5.637,5.049,11.08l0.011,3.923l41.142,23.91L272.619,52.537z"/>
	<path style="fill:#E0E0E2;" d="M273.033,52.297c-0.016-5.59-2.004-9.521-5.202-11.361c0.01,0.006,0.022,0.01,0.031,0.017
		l-41.142-23.91c-3.221-1.871-7.679-1.613-12.591,1.223c-9.762,5.635-17.678,19.348-17.645,30.564l0.125,44.167l41.142,23.91
		l0.414-0.239L238.04,72.5c-0.031-10.955,7.7-24.345,17.234-29.85c9.534-5.505,17.315-1.07,17.346,9.885l0.011,3.923l0.414-0.239
		L273.033,52.297z"/>
</g>
<path style="fill:#ACABB1;" d="M511.903,64.174c-0.01-3.82-1.366-6.501-3.546-7.755c0.007,0.004,0.017,0.007,0.024,0.011
	l-17.171-9.979c-2.198-1.277-5.243-1.096-8.603,0.843l-94.215,54.395c-6.673,3.853-12.069,13.189-12.047,20.856l0.097,34.264
	c0.01,3.807,1.355,6.485,3.522,7.744l17.171,9.979c-0.136-0.079-0.259-0.181-0.389-0.271c2.22,1.548,5.424,1.488,8.992-0.573
	l94.215-54.395c6.673-3.853,12.069-13.189,12.047-20.856L511.903,64.174z"/>
<path style="fill:#E0E0E2;" d="M491.209,46.451c-2.198-1.277-5.243-1.096-8.603,0.843l-94.215,54.395
	c-6.673,3.853-12.069,13.189-12.047,20.856l0.097,34.264c0.01,3.807,1.355,6.485,3.522,7.744l17.171,9.979
	c-2.167-1.26-3.512-3.937-3.522-7.744l-0.097-34.264c-0.022-7.668,5.374-17.004,12.047-20.856l94.215-54.395
	c3.36-1.939,6.405-2.12,8.603-0.843L491.209,46.451z"/>
<path style="fill:#ACABB1;" d="M499.777,57.272c6.673-3.853,12.103-0.767,12.125,6.901l0.097,34.264
	c0.022,7.668-5.374,17.004-12.047,20.856l-94.215,54.395c-6.673,3.853-12.103,0.767-12.125-6.901l-0.097-34.264
	c-0.022-7.668,5.374-17.004,12.047-20.856L499.777,57.272z"/>
<path style="fill:#BDFDFF;" d="M405.696,132.489c-0.009-3.315,3.052-8.595,5.956-10.273l83.479-48.197
	c2.052-1.185,4.619,0.292,4.626,2.661l0.062,21.79c0.009,3.315-3.052,8.595-5.956,10.273l-83.479,48.197
	c-2.052,1.185-4.619-0.292-4.626-2.661L405.696,132.489z"/>
<g>
</g>
<g>
</g>
<g>
</g>
<g>
</g>
<g>
</g>
<g>
</g>
<g>
</g>
<g>
</g>
<g>
</g>
<g>
</g>
<g>
</g>
<g>
</g>
<g>
</g>
<g>
</g>
<g>
</g>
</svg>
