<?xml version="1.0" encoding="iso-8859-1"?>
<!-- Generator: Adobe Illustrator 19.0.0, SVG Export Plug-In . SVG Version: 6.00 Build 0)  -->
<svg version="1.1" id="Capa_1" xmlns="http://www.w3.org/2000/svg" xmlns:xlink="http://www.w3.org/1999/xlink" x="0px" y="0px"
	 viewBox="0 0 430.4 430.4" style="enable-background:new 0 0 430.4 430.4;" xml:space="preserve">
<g>
	<g>
		<path style="fill:#A67E4F;" d="M386,108v220h-30.4c-5.6-2.8-12-4.4-18.4-4.4c-6.8,0-13.2,1.6-18.4,4.4h-152
			c-5.6-2.8-12-4.4-18.4-4.4c-2.4,0-4.8,0.4-7.2,0.4V108H386z"/>
		<rect x="127.2" y="60" style="fill:#A67E4F;" width="272.8" height="48.4"/>
	</g>
	<path style="fill:#643513;" d="M232.4,141.2h62.4c5.2,0,9.6,4.4,9.6,9.6c0,5.2-4.4,9.6-9.6,9.6h-62.4c-5.2,0-9.6-4.4-9.6-9.6
		S226.8,141.2,232.4,141.2z"/>
	<g>
		<path style="fill:#D9AC80;" d="M355.6,328.4h56c10.4,0,18.8,8.4,18.8,18.8S422,366,411.6,366H378v-0.8
			C378,349.2,368.8,335.2,355.6,328.4z M166.8,328.4h151.6c-13.2,6.8-22.4,20.8-22.4,36.8v0.8H189.2v-0.8
			C189.2,349.2,180,335.2,166.8,328.4z M60.8,347.2L60.8,347.2V42.8c0-10.4,8.4-18.8,18.8-18.8s18.8,8.4,18.8,18.8v285.6h31.2
			c-13.2,6.8-22.4,20.8-22.4,36.8v0.8H79.6C69.2,366,60.8,357.6,60.8,347.2z"/>
		<path style="fill:#D9AC80;" d="M0,42.8L0,42.8C0,32.4,8.4,24,18.8,24h60.8c10.4,0,18.8,8.4,18.8,18.8S90,61.6,79.6,61.6H18.8
			C8.4,61.6,0,53.2,0,42.8z"/>
	</g>
	<circle style="fill:#8D5122;" cx="148" cy="365.2" r="41.2"/>
	<circle style="fill:#643513;" cx="148" cy="365.2" r="18.8"/>
	<circle style="fill:#8D5122;" cx="336.8" cy="365.2" r="41.2"/>
	<circle style="fill:#643513;" cx="336.8" cy="365.2" r="18.8"/>
	<rect x="141.2" y="108" style="fill:#926E43;" width="244.8" height="12"/>
</g>
<g>
</g>
<g>
</g>
<g>
</g>
<g>
</g>
<g>
</g>
<g>
</g>
<g>
</g>
<g>
</g>
<g>
</g>
<g>
</g>
<g>
</g>
<g>
</g>
<g>
</g>
<g>
</g>
<g>
</g>
</svg>
